<?xml version="1.0" encoding="UTF-8"?>
<svg xmlns="http://www.w3.org/2000/svg" xmlns:xlink="http://www.w3.org/1999/xlink" width="512" height="512" viewBox="0 0 512 512" version="1.1">
<g id="surface1">
<path style=" stroke:none;fill-rule:nonzero;fill:rgb(0%,0%,0%);fill-opacity:1;" d="M 448 106.667969 C 424.320312 99.199219 398.292969 96 373.332031 96 C 331.734375 96 286.933594 104.535156 256 128 C 225.066406 104.535156 180.265625 96 138.667969 96 C 97.066406 96 52.265625 104.535156 21.332031 128 L 21.332031 440.535156 C 21.332031 445.867188 26.667969 451.199219 32 451.199219 C 34.132812 451.199219 35.199219 450.132812 37.332031 450.132812 C 66.132812 436.265625 107.734375 426.667969 138.667969 426.667969 C 180.265625 426.667969 225.066406 435.199219 256 458.667969 C 284.800781 440.535156 337.066406 426.667969 373.332031 426.667969 C 408.535156 426.667969 444.800781 433.066406 474.667969 449.066406 C 476.800781 450.132812 477.867188 450.132812 480 450.132812 C 485.332031 450.132812 490.667969 444.800781 490.667969 439.464844 L 490.667969 128 C 477.867188 118.398438 464 112 448 106.667969 Z M 448 394.667969 C 424.535156 387.199219 398.933594 384 373.332031 384 C 337.066406 384 284.800781 397.867188 256 416 L 256 170.667969 C 284.800781 152.535156 337.066406 138.667969 373.332031 138.667969 C 398.933594 138.667969 424.535156 141.867188 448 149.332031 Z M 448 394.667969 "/>
<path style=" stroke:none;fill-rule:nonzero;fill:rgb(0%,0%,0%);fill-opacity:1;" d="M 373.332031 224 C 392.105469 224 410.238281 225.921875 426.667969 229.546875 L 426.667969 197.121094 C 409.8125 193.921875 391.679688 192 373.332031 192 C 337.066406 192 304.214844 198.1875 277.332031 209.707031 L 277.332031 245.121094 C 301.441406 231.464844 334.933594 224 373.332031 224 Z M 373.332031 224 "/>
<path style=" stroke:none;fill-rule:nonzero;fill:rgb(0%,0%,0%);fill-opacity:1;" d="M 277.332031 266.453125 L 277.332031 301.867188 C 301.441406 288.214844 334.933594 280.746094 373.332031 280.746094 C 392.105469 280.746094 410.238281 282.667969 426.667969 286.292969 L 426.667969 253.867188 C 409.8125 250.667969 391.679688 248.746094 373.332031 248.746094 C 337.066406 248.746094 304.214844 255.148438 277.332031 266.453125 Z M 277.332031 266.453125 "/>
<path style=" stroke:none;fill-rule:nonzero;fill:rgb(0%,0%,0%);fill-opacity:1;" d="M 373.332031 305.707031 C 337.066406 305.707031 304.214844 311.894531 277.332031 323.414062 L 277.332031 358.828125 C 301.441406 345.171875 334.933594 337.707031 373.332031 337.707031 C 392.105469 337.707031 410.238281 339.625 426.667969 343.253906 L 426.667969 310.828125 C 409.8125 307.414062 391.679688 305.707031 373.332031 305.707031 Z M 373.332031 305.707031 "/>
</g>
</svg>
