<?xml version="1.0" encoding="UTF-8"?>
<svg xmlns="http://www.w3.org/2000/svg" xmlns:xlink="http://www.w3.org/1999/xlink" width="32" height="32" viewBox="0 0 32 32" version="1.1">
<g id="surface1">
<path style=" stroke:none;fill-rule:nonzero;fill:rgb(0%,0%,0%);fill-opacity:1;" d="M 28 6.667969 C 26.519531 6.199219 24.894531 6 23.332031 6 C 20.734375 6 17.933594 6.535156 16 8 C 14.066406 6.535156 11.265625 6 8.667969 6 C 6.066406 6 3.265625 6.535156 1.332031 8 L 1.332031 27.535156 C 1.332031 27.867188 1.667969 28.199219 2 28.199219 C 2.132812 28.199219 2.199219 28.132812 2.332031 28.132812 C 4.132812 27.265625 6.734375 26.667969 8.667969 26.667969 C 11.265625 26.667969 14.066406 27.199219 16 28.667969 C 17.800781 27.535156 21.066406 26.667969 23.332031 26.667969 C 25.535156 26.667969 27.800781 27.066406 29.667969 28.066406 C 29.800781 28.132812 29.867188 28.132812 30 28.132812 C 30.332031 28.132812 30.667969 27.800781 30.667969 27.464844 L 30.667969 8 C 29.867188 7.398438 29 7 28 6.667969 Z M 28 24.667969 C 26.535156 24.199219 24.933594 24 23.332031 24 C 21.066406 24 17.800781 24.867188 16 26 L 16 10.667969 C 17.800781 9.535156 21.066406 8.667969 23.332031 8.667969 C 24.933594 8.667969 26.535156 8.867188 28 9.332031 Z M 28 24.667969 "/>
<path style=" stroke:none;fill-rule:nonzero;fill:rgb(0%,0%,0%);fill-opacity:1;" d="M 23.332031 14 C 24.507812 14 25.640625 14.121094 26.667969 14.347656 L 26.667969 12.320312 C 25.613281 12.121094 24.480469 12 23.332031 12 C 21.066406 12 19.011719 12.386719 17.332031 13.105469 L 17.332031 15.320312 C 18.839844 14.464844 20.933594 14 23.332031 14 Z M 23.332031 14 "/>
<path style=" stroke:none;fill-rule:nonzero;fill:rgb(0%,0%,0%);fill-opacity:1;" d="M 17.332031 16.652344 L 17.332031 18.867188 C 18.839844 18.011719 20.933594 17.546875 23.332031 17.546875 C 24.507812 17.546875 25.640625 17.667969 26.667969 17.894531 L 26.667969 15.867188 C 25.613281 15.667969 24.480469 15.546875 23.332031 15.546875 C 21.066406 15.546875 19.011719 15.945312 17.332031 16.652344 Z M 17.332031 16.652344 "/>
<path style=" stroke:none;fill-rule:nonzero;fill:rgb(0%,0%,0%);fill-opacity:1;" d="M 23.332031 19.105469 C 21.066406 19.105469 19.011719 19.492188 17.332031 20.214844 L 17.332031 22.425781 C 18.839844 21.574219 20.933594 21.105469 23.332031 21.105469 C 24.507812 21.105469 25.640625 21.226562 26.667969 21.453125 L 26.667969 19.425781 C 25.613281 19.214844 24.480469 19.105469 23.332031 19.105469 Z M 23.332031 19.105469 "/>
</g>
</svg>
