<?xml version="1.0" encoding="UTF-8"?>
<svg xmlns="http://www.w3.org/2000/svg" xmlns:xlink="http://www.w3.org/1999/xlink" width="128" height="128" viewBox="0 0 128 128" version="1.1">
<g id="surface1">
<path style=" stroke:none;fill-rule:nonzero;fill:rgb(0%,0%,0%);fill-opacity:1;" d="M 112 26.667969 C 106.078125 24.800781 99.574219 24 93.332031 24 C 82.933594 24 71.734375 26.132812 64 32 C 56.265625 26.132812 45.066406 24 34.667969 24 C 24.265625 24 13.066406 26.132812 5.332031 32 L 5.332031 110.132812 C 5.332031 111.464844 6.667969 112.800781 8 112.800781 C 8.535156 112.800781 8.800781 112.535156 9.332031 112.535156 C 16.535156 109.066406 26.933594 106.667969 34.667969 106.667969 C 45.066406 106.667969 56.265625 108.800781 64 114.667969 C 71.199219 110.132812 84.265625 106.667969 93.332031 106.667969 C 102.132812 106.667969 111.199219 108.265625 118.667969 112.265625 C 119.199219 112.535156 119.464844 112.535156 120 112.535156 C 121.332031 112.535156 122.667969 111.199219 122.667969 109.867188 L 122.667969 32 C 119.464844 29.601562 116 28 112 26.667969 Z M 112 98.667969 C 106.132812 96.800781 99.734375 96 93.332031 96 C 84.265625 96 71.199219 99.464844 64 104 L 64 42.667969 C 71.199219 38.132812 84.265625 34.667969 93.332031 34.667969 C 99.734375 34.667969 106.132812 35.464844 112 37.332031 Z M 112 98.667969 "/>
<path style=" stroke:none;fill-rule:nonzero;fill:rgb(0%,0%,0%);fill-opacity:1;" d="M 93.332031 56 C 98.027344 56 102.558594 56.480469 106.667969 57.386719 L 106.667969 49.28125 C 102.453125 48.480469 97.921875 48 93.332031 48 C 84.265625 48 76.054688 49.546875 69.332031 52.425781 L 69.332031 61.28125 C 75.359375 57.867188 83.734375 56 93.332031 56 Z M 93.332031 56 "/>
<path style=" stroke:none;fill-rule:nonzero;fill:rgb(0%,0%,0%);fill-opacity:1;" d="M 69.332031 66.613281 L 69.332031 75.464844 C 75.359375 72.054688 83.734375 70.1875 93.332031 70.1875 C 98.027344 70.1875 102.558594 70.667969 106.667969 71.574219 L 106.667969 63.464844 C 102.453125 62.667969 97.921875 62.1875 93.332031 62.1875 C 84.265625 62.1875 76.054688 63.785156 69.332031 66.613281 Z M 69.332031 66.613281 "/>
<path style=" stroke:none;fill-rule:nonzero;fill:rgb(0%,0%,0%);fill-opacity:1;" d="M 93.332031 76.425781 C 84.265625 76.425781 76.054688 77.972656 69.332031 80.851562 L 69.332031 89.707031 C 75.359375 86.292969 83.734375 84.425781 93.332031 84.425781 C 98.027344 84.425781 102.558594 84.90625 106.667969 85.8125 L 106.667969 77.707031 C 102.453125 76.851562 97.921875 76.425781 93.332031 76.425781 Z M 93.332031 76.425781 "/>
</g>
</svg>
