<?xml version="1.0" encoding="UTF-8"?>
<svg xmlns="http://www.w3.org/2000/svg" xmlns:xlink="http://www.w3.org/1999/xlink" width="256" height="256" viewBox="0 0 256 256" version="1.1">
<g id="surface1">
<path style=" stroke:none;fill-rule:nonzero;fill:rgb(0%,0%,0%);fill-opacity:1;" d="M 224 53.332031 C 212.160156 49.601562 199.148438 48 186.667969 48 C 165.867188 48 143.464844 52.265625 128 64 C 112.535156 52.265625 90.132812 48 69.332031 48 C 48.535156 48 26.132812 52.265625 10.667969 64 L 10.667969 220.265625 C 10.667969 222.933594 13.332031 225.601562 16 225.601562 C 17.066406 225.601562 17.601562 225.066406 18.667969 225.066406 C 33.066406 218.132812 53.867188 213.332031 69.332031 213.332031 C 90.132812 213.332031 112.535156 217.601562 128 229.332031 C 142.398438 220.265625 168.535156 213.332031 186.667969 213.332031 C 204.265625 213.332031 222.398438 216.535156 237.332031 224.535156 C 238.398438 225.066406 238.933594 225.066406 240 225.066406 C 242.667969 225.066406 245.332031 222.398438 245.332031 219.734375 L 245.332031 64 C 238.933594 59.199219 232 56 224 53.332031 Z M 224 197.332031 C 212.265625 193.601562 199.464844 192 186.667969 192 C 168.535156 192 142.398438 198.933594 128 208 L 128 85.332031 C 142.398438 76.265625 168.535156 69.332031 186.667969 69.332031 C 199.464844 69.332031 212.265625 70.933594 224 74.667969 Z M 224 197.332031 "/>
<path style=" stroke:none;fill-rule:nonzero;fill:rgb(0%,0%,0%);fill-opacity:1;" d="M 186.667969 112 C 196.054688 112 205.121094 112.960938 213.332031 114.773438 L 213.332031 98.558594 C 204.90625 96.960938 195.839844 96 186.667969 96 C 168.535156 96 152.105469 99.09375 138.667969 104.851562 L 138.667969 122.558594 C 150.71875 115.734375 167.464844 112 186.667969 112 Z M 186.667969 112 "/>
<path style=" stroke:none;fill-rule:nonzero;fill:rgb(0%,0%,0%);fill-opacity:1;" d="M 138.667969 133.226562 L 138.667969 150.933594 C 150.71875 144.105469 167.464844 140.375 186.667969 140.375 C 196.054688 140.375 205.121094 141.332031 213.332031 143.148438 L 213.332031 126.933594 C 204.90625 125.332031 195.839844 124.375 186.667969 124.375 C 168.535156 124.375 152.105469 127.574219 138.667969 133.226562 Z M 138.667969 133.226562 "/>
<path style=" stroke:none;fill-rule:nonzero;fill:rgb(0%,0%,0%);fill-opacity:1;" d="M 186.667969 152.851562 C 168.535156 152.851562 152.105469 155.945312 138.667969 161.707031 L 138.667969 179.414062 C 150.71875 172.585938 167.464844 168.851562 186.667969 168.851562 C 196.054688 168.851562 205.121094 169.8125 213.332031 171.625 L 213.332031 155.414062 C 204.90625 153.707031 195.839844 152.851562 186.667969 152.851562 Z M 186.667969 152.851562 "/>
</g>
</svg>
