<?xml version="1.0" encoding="UTF-8"?>
<svg xmlns="http://www.w3.org/2000/svg" xmlns:xlink="http://www.w3.org/1999/xlink" width="168" height="168" viewBox="0 0 168 168" version="1.1">
<g id="surface1">
<path style=" stroke:none;fill-rule:nonzero;fill:rgb(0%,0%,0%);fill-opacity:1;" d="M 147 35 C 139.230469 32.550781 130.691406 31.5 122.5 31.5 C 108.851562 31.5 94.148438 34.300781 84 42 C 73.851562 34.300781 59.148438 31.5 45.5 31.5 C 31.851562 31.5 17.148438 34.300781 7 42 L 7 144.550781 C 7 146.300781 8.75 148.050781 10.5 148.050781 C 11.199219 148.050781 11.550781 147.699219 12.25 147.699219 C 21.699219 143.148438 35.351562 140 45.5 140 C 59.148438 140 73.851562 142.800781 84 150.5 C 93.449219 144.550781 110.601562 140 122.5 140 C 134.050781 140 145.949219 142.101562 155.75 147.351562 C 156.449219 147.699219 156.800781 147.699219 157.5 147.699219 C 159.25 147.699219 161 145.949219 161 144.199219 L 161 42 C 156.800781 38.851562 152.25 36.75 147 35 Z M 147 129.5 C 139.300781 127.050781 130.898438 126 122.5 126 C 110.601562 126 93.449219 130.550781 84 136.5 L 84 56 C 93.449219 50.050781 110.601562 45.5 122.5 45.5 C 130.898438 45.5 139.300781 46.550781 147 49 Z M 147 129.5 "/>
<path style=" stroke:none;fill-rule:nonzero;fill:rgb(0%,0%,0%);fill-opacity:1;" d="M 122.5 73.5 C 128.660156 73.5 134.609375 74.128906 140 75.320312 L 140 64.679688 C 134.46875 63.628906 128.519531 63 122.5 63 C 110.601562 63 99.820312 65.03125 91 68.808594 L 91 80.429688 C 98.910156 75.949219 109.898438 73.5 122.5 73.5 Z M 122.5 73.5 "/>
<path style=" stroke:none;fill-rule:nonzero;fill:rgb(0%,0%,0%);fill-opacity:1;" d="M 91 87.429688 L 91 99.050781 C 98.910156 94.570312 109.898438 92.121094 122.5 92.121094 C 128.660156 92.121094 134.609375 92.75 140 93.941406 L 140 83.300781 C 134.46875 82.25 128.519531 81.621094 122.5 81.621094 C 110.601562 81.621094 99.820312 83.71875 91 87.429688 Z M 91 87.429688 "/>
<path style=" stroke:none;fill-rule:nonzero;fill:rgb(0%,0%,0%);fill-opacity:1;" d="M 122.5 100.308594 C 110.601562 100.308594 99.820312 102.339844 91 106.121094 L 91 117.738281 C 98.910156 113.261719 109.898438 110.808594 122.5 110.808594 C 128.660156 110.808594 134.609375 111.441406 140 112.628906 L 140 101.988281 C 134.46875 100.871094 128.519531 100.308594 122.5 100.308594 Z M 122.5 100.308594 "/>
</g>
</svg>
