<?xml version="1.0" encoding="UTF-8"?>
<svg xmlns="http://www.w3.org/2000/svg" xmlns:xlink="http://www.w3.org/1999/xlink" width="96" height="96" viewBox="0 0 96 96" version="1.1">
<g id="surface1">
<path style=" stroke:none;fill-rule:nonzero;fill:rgb(0%,0%,0%);fill-opacity:1;" d="M 84 20 C 79.558594 18.601562 74.679688 18 70 18 C 62.199219 18 53.800781 19.601562 48 24 C 42.199219 19.601562 33.800781 18 26 18 C 18.199219 18 9.800781 19.601562 4 24 L 4 82.601562 C 4 83.601562 5 84.601562 6 84.601562 C 6.398438 84.601562 6.601562 84.398438 7 84.398438 C 12.398438 81.800781 20.199219 80 26 80 C 33.800781 80 42.199219 81.601562 48 86 C 53.398438 82.601562 63.199219 80 70 80 C 76.601562 80 83.398438 81.199219 89 84.199219 C 89.398438 84.398438 89.601562 84.398438 90 84.398438 C 91 84.398438 92 83.398438 92 82.398438 L 92 24 C 89.601562 22.199219 87 21 84 20 Z M 84 74 C 79.601562 72.601562 74.800781 72 70 72 C 63.199219 72 53.398438 74.601562 48 78 L 48 32 C 53.398438 28.601562 63.199219 26 70 26 C 74.800781 26 79.601562 26.601562 84 28 Z M 84 74 "/>
<path style=" stroke:none;fill-rule:nonzero;fill:rgb(0%,0%,0%);fill-opacity:1;" d="M 70 42 C 73.519531 42 76.921875 42.359375 80 43.039062 L 80 36.960938 C 76.839844 36.359375 73.441406 36 70 36 C 63.199219 36 57.039062 37.160156 52 39.320312 L 52 45.960938 C 56.519531 43.398438 62.800781 42 70 42 Z M 70 42 "/>
<path style=" stroke:none;fill-rule:nonzero;fill:rgb(0%,0%,0%);fill-opacity:1;" d="M 52 49.960938 L 52 56.601562 C 56.519531 54.039062 62.800781 52.640625 70 52.640625 C 73.519531 52.640625 76.921875 53 80 53.679688 L 80 47.601562 C 76.839844 47 73.441406 46.640625 70 46.640625 C 63.199219 46.640625 57.039062 47.839844 52 49.960938 Z M 52 49.960938 "/>
<path style=" stroke:none;fill-rule:nonzero;fill:rgb(0%,0%,0%);fill-opacity:1;" d="M 70 57.320312 C 63.199219 57.320312 57.039062 58.480469 52 60.640625 L 52 67.28125 C 56.519531 64.71875 62.800781 63.320312 70 63.320312 C 73.519531 63.320312 76.921875 63.679688 80 64.359375 L 80 58.28125 C 76.839844 57.640625 73.441406 57.320312 70 57.320312 Z M 70 57.320312 "/>
</g>
</svg>
