<?xml version="1.0" encoding="UTF-8"?>
<svg xmlns="http://www.w3.org/2000/svg" xmlns:xlink="http://www.w3.org/1999/xlink" width="192" height="192" viewBox="0 0 192 192" version="1.1">
<g id="surface1">
<path style=" stroke:none;fill-rule:nonzero;fill:rgb(0%,0%,0%);fill-opacity:1;" d="M 168 40 C 159.121094 37.199219 149.359375 36 140 36 C 124.398438 36 107.601562 39.199219 96 48 C 84.398438 39.199219 67.601562 36 52 36 C 36.398438 36 19.601562 39.199219 8 48 L 8 165.199219 C 8 167.199219 10 169.199219 12 169.199219 C 12.800781 169.199219 13.199219 168.800781 14 168.800781 C 24.800781 163.601562 40.398438 160 52 160 C 67.601562 160 84.398438 163.199219 96 172 C 106.800781 165.199219 126.398438 160 140 160 C 153.199219 160 166.800781 162.398438 178 168.398438 C 178.800781 168.800781 179.199219 168.800781 180 168.800781 C 182 168.800781 184 166.800781 184 164.800781 L 184 48 C 179.199219 44.398438 174 42 168 40 Z M 168 148 C 159.199219 145.199219 149.601562 144 140 144 C 126.398438 144 106.800781 149.199219 96 156 L 96 64 C 106.800781 57.199219 126.398438 52 140 52 C 149.601562 52 159.199219 53.199219 168 56 Z M 168 148 "/>
<path style=" stroke:none;fill-rule:nonzero;fill:rgb(0%,0%,0%);fill-opacity:1;" d="M 140 84 C 147.039062 84 153.839844 84.71875 160 86.078125 L 160 73.921875 C 153.679688 72.71875 146.878906 72 140 72 C 126.398438 72 114.078125 74.320312 104 78.640625 L 104 91.921875 C 113.039062 86.800781 125.601562 84 140 84 Z M 140 84 "/>
<path style=" stroke:none;fill-rule:nonzero;fill:rgb(0%,0%,0%);fill-opacity:1;" d="M 104 99.921875 L 104 113.199219 C 113.039062 108.078125 125.601562 105.28125 140 105.28125 C 147.039062 105.28125 153.839844 106 160 107.359375 L 160 95.199219 C 153.679688 94 146.878906 93.28125 140 93.28125 C 126.398438 93.28125 114.078125 95.679688 104 99.921875 Z M 104 99.921875 "/>
<path style=" stroke:none;fill-rule:nonzero;fill:rgb(0%,0%,0%);fill-opacity:1;" d="M 140 114.640625 C 126.398438 114.640625 114.078125 116.960938 104 121.28125 L 104 134.558594 C 113.039062 129.441406 125.601562 126.640625 140 126.640625 C 147.039062 126.640625 153.839844 127.359375 160 128.71875 L 160 116.558594 C 153.679688 115.28125 146.878906 114.640625 140 114.640625 Z M 140 114.640625 "/>
</g>
</svg>
