<?xml version="1.0" encoding="UTF-8"?>
<svg xmlns="http://www.w3.org/2000/svg" xmlns:xlink="http://www.w3.org/1999/xlink" width="48" height="48" viewBox="0 0 48 48" version="1.1">
<g id="surface1">
<path style=" stroke:none;fill-rule:nonzero;fill:rgb(0%,0%,0%);fill-opacity:1;" d="M 42 10 C 39.78125 9.300781 37.339844 9 35 9 C 31.101562 9 26.898438 9.800781 24 12 C 21.101562 9.800781 16.898438 9 13 9 C 9.101562 9 4.898438 9.800781 2 12 L 2 41.300781 C 2 41.800781 2.5 42.300781 3 42.300781 C 3.199219 42.300781 3.300781 42.199219 3.5 42.199219 C 6.199219 40.898438 10.101562 40 13 40 C 16.898438 40 21.101562 40.800781 24 43 C 26.699219 41.300781 31.601562 40 35 40 C 38.300781 40 41.699219 40.601562 44.5 42.101562 C 44.699219 42.199219 44.800781 42.199219 45 42.199219 C 45.5 42.199219 46 41.699219 46 41.199219 L 46 12 C 44.800781 11.101562 43.5 10.5 42 10 Z M 42 37 C 39.800781 36.300781 37.398438 36 35 36 C 31.601562 36 26.699219 37.300781 24 39 L 24 16 C 26.699219 14.300781 31.601562 13 35 13 C 37.398438 13 39.800781 13.300781 42 14 Z M 42 37 "/>
<path style=" stroke:none;fill-rule:nonzero;fill:rgb(0%,0%,0%);fill-opacity:1;" d="M 35 21 C 36.761719 21 38.460938 21.179688 40 21.519531 L 40 18.480469 C 38.421875 18.179688 36.71875 18 35 18 C 31.601562 18 28.519531 18.578125 26 19.660156 L 26 22.980469 C 28.261719 21.699219 31.398438 21 35 21 Z M 35 21 "/>
<path style=" stroke:none;fill-rule:nonzero;fill:rgb(0%,0%,0%);fill-opacity:1;" d="M 26 24.980469 L 26 28.300781 C 28.261719 27.019531 31.398438 26.320312 35 26.320312 C 36.761719 26.320312 38.460938 26.5 40 26.839844 L 40 23.800781 C 38.421875 23.5 36.71875 23.320312 35 23.320312 C 31.601562 23.320312 28.519531 23.921875 26 24.980469 Z M 26 24.980469 "/>
<path style=" stroke:none;fill-rule:nonzero;fill:rgb(0%,0%,0%);fill-opacity:1;" d="M 35 28.660156 C 31.601562 28.660156 28.519531 29.238281 26 30.320312 L 26 33.640625 C 28.261719 32.359375 31.398438 31.660156 35 31.660156 C 36.761719 31.660156 38.460938 31.839844 40 32.179688 L 40 29.140625 C 38.421875 28.820312 36.71875 28.660156 35 28.660156 Z M 35 28.660156 "/>
</g>
</svg>
