<?xml version="1.0" encoding="UTF-8"?>
<svg xmlns="http://www.w3.org/2000/svg" xmlns:xlink="http://www.w3.org/1999/xlink" width="64" height="64" viewBox="0 0 64 64" version="1.1">
<g id="surface1">
<path style=" stroke:none;fill-rule:nonzero;fill:rgb(0%,0%,0%);fill-opacity:1;" d="M 56 13.332031 C 53.039062 12.398438 49.785156 12 46.667969 12 C 41.464844 12 35.867188 13.066406 32 16 C 28.132812 13.066406 22.535156 12 17.332031 12 C 12.132812 12 6.535156 13.066406 2.667969 16 L 2.667969 55.066406 C 2.667969 55.734375 3.332031 56.398438 4 56.398438 C 4.265625 56.398438 4.398438 56.265625 4.667969 56.265625 C 8.265625 54.535156 13.464844 53.332031 17.332031 53.332031 C 22.535156 53.332031 28.132812 54.398438 32 57.332031 C 35.601562 55.066406 42.132812 53.332031 46.667969 53.332031 C 51.066406 53.332031 55.601562 54.132812 59.332031 56.132812 C 59.601562 56.265625 59.734375 56.265625 60 56.265625 C 60.667969 56.265625 61.332031 55.601562 61.332031 54.933594 L 61.332031 16 C 59.734375 14.800781 58 14 56 13.332031 Z M 56 49.332031 C 53.066406 48.398438 49.867188 48 46.667969 48 C 42.132812 48 35.601562 49.734375 32 52 L 32 21.332031 C 35.601562 19.066406 42.132812 17.332031 46.667969 17.332031 C 49.867188 17.332031 53.066406 17.734375 56 18.667969 Z M 56 49.332031 "/>
<path style=" stroke:none;fill-rule:nonzero;fill:rgb(0%,0%,0%);fill-opacity:1;" d="M 46.667969 28 C 49.011719 28 51.28125 28.238281 53.332031 28.691406 L 53.332031 24.640625 C 51.226562 24.238281 48.960938 24 46.667969 24 C 42.132812 24 38.027344 24.773438 34.667969 26.214844 L 34.667969 30.640625 C 37.679688 28.933594 41.867188 28 46.667969 28 Z M 46.667969 28 "/>
<path style=" stroke:none;fill-rule:nonzero;fill:rgb(0%,0%,0%);fill-opacity:1;" d="M 34.667969 33.308594 L 34.667969 37.734375 C 37.679688 36.027344 41.867188 35.09375 46.667969 35.09375 C 49.011719 35.09375 51.28125 35.332031 53.332031 35.785156 L 53.332031 31.734375 C 51.226562 31.332031 48.960938 31.09375 46.667969 31.09375 C 42.132812 31.09375 38.027344 31.894531 34.667969 33.308594 Z M 34.667969 33.308594 "/>
<path style=" stroke:none;fill-rule:nonzero;fill:rgb(0%,0%,0%);fill-opacity:1;" d="M 46.667969 38.214844 C 42.132812 38.214844 38.027344 38.988281 34.667969 40.425781 L 34.667969 44.851562 C 37.679688 43.148438 41.867188 42.214844 46.667969 42.214844 C 49.011719 42.214844 51.28125 42.453125 53.332031 42.90625 L 53.332031 38.851562 C 51.226562 38.425781 48.960938 38.214844 46.667969 38.214844 Z M 46.667969 38.214844 "/>
</g>
</svg>
